# xmcd
# Copyright (C) 1995-1998 Ti Kan
#
# Track frame offsets:
#       150
#       19953
#       35730
#       51645
#       75129
#       93999
#       113155
#       132810
#       152493
#       168895
#       188736
#       206700
#       223959
#
# Disc length: 3164 seconds
#
# Revision: 0
# Processed by: cddbd v1.5.2PL0 Copyright (c) Steve Scherf et al.
# Submitted via: CD-Transfer v1.0
#
DISCID=ae0c5a0d
DTITLE=Yuliet Topaz - Latin Flavour
DYEAR=08
DGENRE=
TTITLE0=I Shot The Sherrif
TTITLE1=Put Your Records
TTITLE2=Fallin'
TTITLE3=Frozen
TTITLE4=That's The Way Love Goes
TTITLE5=Summertime
TTITLE6=Killing Me Softly
TTITLE7=All Around The World
TTITLE8=Quero Te A Sambar?
TTITLE9=As
TTITLE10=Your Love Is King
TTITLE11=Anothe Sad Love Song
TTITLE12=Apologize
EXTD=
EXTT0=
EXTT1=
EXTT2=
EXTT3=
EXTT4=
EXTT5=
EXTT6=
EXTT7=
EXTT8=
EXTT9=
EXTT10=
EXTT11=
EXTT12=
PLAYORDER=
